<svg width="21" height="21" viewBox="0 0 21 21" fill="none" xmlns="http://www.w3.org/2000/svg">
<path d="M5.97998 2.02667L3.47998 5.36001V17.0267C3.47998 17.4687 3.65558 17.8926 3.96814 18.2052C4.2807 18.5177 4.70462 18.6933 5.14665 18.6933H16.8133C17.2553 18.6933 17.6793 18.5177 17.9918 18.2052C18.3044 17.8926 18.48 17.4687 18.48 17.0267V5.36001L15.98 2.02667H5.97998Z" stroke="#09090B" stroke-width="1.66667" stroke-linecap="round" stroke-linejoin="round"/>
<path d="M3.47998 5.36H18.48" stroke="#09090B" stroke-width="1.66667" stroke-linecap="round" stroke-linejoin="round"/>
<path d="M14.3133 8.69333C14.3133 9.57738 13.9621 10.4252 13.337 11.0504C12.7119 11.6755 11.8641 12.0267 10.98 12.0267C10.0959 12.0267 9.2481 11.6755 8.62298 11.0504C7.99786 10.4252 7.64667 9.57738 7.64667 8.69333" stroke="#09090B" stroke-width="1.66667" stroke-linecap="round" stroke-linejoin="round"/>
</svg>
